<?xml version="1.0" encoding="utf-8"?>
<!-- Generator: Adobe Illustrator 15.0.0, SVG Export Plug-In . SVG Version: 6.00 Build 0)  -->
<!DOCTYPE svg PUBLIC "-//W3C//DTD SVG 1.1//EN" "http://www.w3.org/Graphics/SVG/1.1/DTD/svg11.dtd">
<svg version="1.1" id="Layer_1" xmlns="http://www.w3.org/2000/svg" xmlns:xlink="http://www.w3.org/1999/xlink" x="0px" y="0px"
	 width="291px" height="61.5px" viewBox="0 0 291 61.5" enable-background="new 0 0 291 61.5" xml:space="preserve">
<g>
	<path d="M34.605,39.604c-2.583,0-4.577-0.603-5.983-1.808c-1.407-1.205-2.109-2.897-2.109-5.079c0-4.705,3.069-7.001,9.211-6.887
		l6.198,0.086c1.664,0.058,3.042,0.129,4.132,0.215c1.089,0.086,2.023,0.245,2.798,0.474c0.775,0.23,1.42,0.517,1.937,0.861
		s1.003,0.805,1.463,1.377c1.664,2.01,2.467,4.792,2.411,8.351L54.577,42.1c-0.058,1.205-0.101,2.139-0.129,2.798
		c-0.03,0.661-0.058,1.192-0.086,1.593c-0.029,0.402-0.072,0.731-0.129,0.99c-0.058,0.258-0.144,0.56-0.258,0.904
		c-0.46,1.493-1.521,3.043-3.185,4.649c-1.666,1.607-3.76,3.071-6.284,4.39c-4.305,2.238-8.839,3.357-13.602,3.357
		c-4.19,0-8.131-0.79-11.823-2.367c-3.694-1.578-6.911-3.73-9.652-6.457c-2.743-2.725-4.899-5.925-6.47-9.599
		c-1.571-3.672-2.356-7.604-2.356-11.794c0-4.132,0.786-8.034,2.356-11.708C4.529,15.185,6.685,12,9.428,9.301
		c2.741-2.697,5.945-4.834,9.609-6.414c3.664-1.578,7.59-2.367,11.78-2.367c2.812,0,5.596,0.387,8.351,1.162
		c2.754,0.775,5.337,1.909,7.748,3.4c3.96,2.526,5.94,5.481,5.94,8.867c0,1.321-0.258,2.555-0.775,3.702
		c-0.516,1.149-1.205,2.152-2.066,3.013s-1.88,1.536-3.056,2.023c-1.177,0.488-2.425,0.732-3.745,0.732
		c-0.46,0-0.919-0.043-1.377-0.129c-0.46-0.086-0.833-0.186-1.119-0.301l-4.218-2.238c-1.033-0.458-2.053-0.831-3.056-1.119
		c-1.004-0.286-1.995-0.43-2.97-0.43c-1.493,0-2.899,0.303-4.218,0.908c-1.321,0.605-2.468,1.426-3.443,2.463
		c-0.977,1.037-1.765,2.247-2.368,3.629s-0.904,2.823-0.904,4.32c0,1.556,0.301,3.025,0.904,4.408s1.406,2.578,2.411,3.586
		c1.003,1.009,2.195,1.814,3.573,2.419c1.377,0.605,2.841,0.907,4.39,0.907c1.205,0,2.252-0.164,3.142-0.492
		c0.889-0.328,2.023-0.909,3.4-1.746H34.605z"/>
	<path d="M102.612,44.338c0.631,0.977,1.089,1.995,1.377,3.056c0.287,1.062,0.431,2.081,0.431,3.056c0,1.321-0.245,2.54-0.732,3.659
		c-0.488,1.119-1.162,2.095-2.023,2.927c-0.861,0.833-1.866,1.493-3.013,1.98c-1.149,0.487-2.382,0.732-3.702,0.732
		c-3.443,0-6.056-1.464-7.833-4.391l-7.834-12.999v7.834c0,1.377-0.245,2.64-0.732,3.788c-0.488,1.149-1.148,2.152-1.98,3.013
		c-0.833,0.861-1.808,1.536-2.927,2.023s-2.339,0.732-3.659,0.732c-1.435,0-2.812-0.302-4.132-0.904
		c-1.321-0.603-2.41-1.449-3.271-2.54c-1.493-1.894-2.238-4.591-2.238-8.092V12.831c0-2.066,0.229-3.745,0.688-5.036
		c0.459-1.292,1.262-2.424,2.411-3.401c1.089-0.975,2.223-1.635,3.4-1.98c1.176-0.344,2.912-0.516,5.208-0.516h7.92
		c2.353,0,4.161,0.072,5.424,0.215c1.262,0.144,2.524,0.359,3.788,0.646c2.238,0.632,4.275,1.579,6.112,2.841
		c1.836,1.263,3.414,2.77,4.734,4.52c1.32,1.751,2.353,3.688,3.099,5.811c0.746,2.124,1.119,4.334,1.119,6.629
		c0,2.755-0.473,5.266-1.42,7.532c-0.947,2.268-2.511,4.635-4.691,7.103L102.612,44.338z"/>
	<path d="M123.125,57.897c-1.521,1.235-3.43,1.851-5.725,1.851c-1.321,0-2.555-0.245-3.702-0.732
		c-1.149-0.487-2.139-1.162-2.97-2.023c-0.833-0.861-1.493-1.864-1.98-3.013c-0.488-1.147-0.732-2.381-0.732-3.702
		c0-1.606,0.401-3.271,1.206-4.993l17.992-38.136c0.803-1.778,1.98-3.17,3.53-4.175c1.549-1.003,3.271-1.506,5.165-1.506
		c1.951,0,3.702,0.503,5.251,1.506c1.549,1.005,2.755,2.425,3.616,4.262l18.078,38.566c0.745,1.435,1.119,2.957,1.119,4.562
		c0,1.321-0.258,2.54-0.775,3.659s-1.205,2.109-2.066,2.97s-1.866,1.536-3.013,2.023c-1.149,0.487-2.382,0.732-3.702,0.732
		c-2.182,0-4.003-0.588-5.467-1.765c-1.463-1.175-2.855-3.228-4.175-6.155h-17.562C126.009,54.641,124.646,56.664,123.125,57.897z"
		/>
	<path d="M186.562,46.404c0,1.377-0.015,2.526-0.043,3.443c-0.03,0.919-0.101,1.694-0.215,2.325
		c-0.116,0.632-0.273,1.177-0.474,1.635c-0.202,0.46-0.474,0.977-0.818,1.55c-0.804,1.321-1.909,2.382-3.314,3.185
		c-1.407,0.803-2.941,1.206-4.605,1.206c-1.779,0-3.415-0.444-4.907-1.334c-1.493-0.889-2.612-2.08-3.357-3.573
		c-0.288-0.517-0.503-1.003-0.646-1.463c-0.144-0.458-0.258-0.99-0.345-1.593c-0.086-0.603-0.144-1.334-0.172-2.195
		c-0.03-0.861-0.043-1.951-0.043-3.271V13.175c0-2.583,0.314-4.591,0.947-6.026c0.631-1.434,1.692-2.639,3.185-3.616
		c0.573-0.4,1.262-0.717,2.066-0.947c0.803-0.229,1.635-0.401,2.496-0.517c0.401-0.056,1.019-0.1,1.851-0.129
		c0.831-0.028,1.879-0.043,3.142-0.043h11.363c1.55,0,2.812,0.015,3.788,0.043c0.975,0.029,1.808,0.101,2.497,0.215
		c0.688,0.115,1.276,0.258,1.765,0.43c0.487,0.172,0.99,0.431,1.506,0.775c1.262,0.747,2.252,1.765,2.97,3.056
		c0.717,1.291,1.076,2.683,1.076,4.175c0,1.321-0.273,2.612-0.817,3.874c-0.546,1.263-1.278,2.296-2.195,3.099
		c-0.919,0.804-1.909,1.349-2.97,1.636c-1.062,0.288-2.453,0.43-4.175,0.43h-9.556v3.96h5.854c1.664,0,2.912,0.073,3.745,0.215
		c0.831,0.144,1.621,0.445,2.367,0.904c0.975,0.632,1.75,1.436,2.324,2.411c0.573,0.977,0.861,2.066,0.861,3.271
		c0,2.238-0.703,3.96-2.109,5.165c-1.407,1.205-3.486,1.808-6.241,1.808h-6.801V46.404z"/>
	<path d="M228.631,46.404c0,1.377-0.015,2.526-0.043,3.443c-0.029,0.919-0.101,1.694-0.215,2.325
		c-0.115,0.632-0.273,1.177-0.474,1.635c-0.202,0.46-0.474,0.977-0.817,1.55c-0.805,1.321-1.909,2.382-3.314,3.185
		c-1.407,0.803-2.941,1.206-4.605,1.206c-1.779,0-3.416-0.444-4.907-1.334c-1.493-0.889-2.612-2.08-3.357-3.573
		c-0.288-0.517-0.503-1.003-0.646-1.463c-0.144-0.458-0.258-0.99-0.345-1.593c-0.086-0.603-0.144-1.334-0.172-2.195
		c-0.03-0.861-0.043-1.951-0.043-3.271V13.175c0-2.583,0.314-4.591,0.947-6.026c0.631-1.434,1.692-2.639,3.185-3.616
		c0.573-0.4,1.262-0.717,2.066-0.947c0.803-0.229,1.635-0.401,2.496-0.517c0.4-0.056,1.019-0.1,1.852-0.129
		c0.83-0.028,1.879-0.043,3.142-0.043h11.363c1.55,0,2.812,0.015,3.788,0.043c0.975,0.029,1.808,0.101,2.496,0.215
		c0.689,0.115,1.277,0.258,1.766,0.43c0.486,0.172,0.989,0.431,1.506,0.775c1.262,0.747,2.252,1.765,2.971,3.056
		c0.717,1.291,1.075,2.683,1.075,4.175c0,1.321-0.272,2.612-0.817,3.874c-0.547,1.263-1.277,2.296-2.195,3.099
		c-0.919,0.804-1.908,1.349-2.971,1.636c-1.062,0.288-2.453,0.43-4.174,0.43h-9.557v3.96h5.854c1.664,0,2.912,0.073,3.746,0.215
		c0.83,0.144,1.62,0.445,2.367,0.904c0.975,0.632,1.75,1.436,2.324,2.411c0.572,0.977,0.86,2.066,0.86,3.271
		c0,2.238-0.703,3.96-2.108,5.165c-1.408,1.205-3.486,1.808-6.242,1.808h-6.801V46.404z"/>
	<path d="M270.702,46.404c0,1.377-0.016,2.526-0.043,3.443c-0.029,0.919-0.102,1.694-0.215,2.325
		c-0.116,0.632-0.273,1.177-0.475,1.635c-0.201,0.46-0.473,0.977-0.817,1.55c-0.804,1.321-1.909,2.382-3.314,3.185
		c-1.407,0.803-2.941,1.206-4.605,1.206c-1.779,0-3.415-0.444-4.907-1.334c-1.492-0.889-2.611-2.08-3.357-3.573
		c-0.287-0.517-0.502-1.003-0.645-1.463c-0.145-0.458-0.259-0.99-0.346-1.593c-0.086-0.603-0.143-1.334-0.172-2.195
		c-0.029-0.861-0.043-1.951-0.043-3.271V13.175c0-2.583,0.314-4.591,0.947-6.026c0.631-1.434,1.691-2.639,3.186-3.616
		c0.572-0.4,1.262-0.717,2.066-0.947c0.803-0.229,1.635-0.401,2.496-0.517c0.4-0.056,1.018-0.1,1.851-0.129
		c0.831-0.028,1.879-0.043,3.142-0.043h11.363c1.551,0,2.812,0.015,3.789,0.043c0.975,0.029,1.807,0.101,2.496,0.215
		c0.688,0.115,1.276,0.258,1.765,0.43c0.487,0.172,0.989,0.431,1.507,0.775c1.262,0.747,2.252,1.765,2.97,3.056
		c0.717,1.291,1.075,2.683,1.075,4.175c0,1.321-0.272,2.612-0.816,3.874c-0.547,1.263-1.278,2.296-2.195,3.099
		c-0.92,0.804-1.909,1.349-2.971,1.636c-1.062,0.288-2.453,0.43-4.175,0.43h-9.556v3.96h5.854c1.664,0,2.912,0.073,3.745,0.215
		c0.831,0.144,1.62,0.445,2.367,0.904c0.976,0.632,1.75,1.436,2.324,2.411c0.573,0.977,0.86,2.066,0.86,3.271
		c0,2.238-0.703,3.96-2.108,5.165c-1.407,1.205-3.486,1.808-6.241,1.808h-6.801V46.404z"/>
</g>
</svg>
